PathFileType	4	(X/Y/Z)	Walk6.trc
DataRate	CameraRate	NumFrames	NumMarkers	Units	OrigDataRate	OrigDataStartFrame	OrigNumFrames
200.000000	200.000000	4	59	mm	200.000000	461	500
Frame#	Times		LFHD		LBHD		C7		T10		RBack		LPSI		RPSI		RElbowM		RCAR		LUA1		LElbowM		LLFC		LCAR		RUA1		RFA1		RWRR		CLAV		LACR1		RTH3		RTB1		LWRU		RBHD		RACR1		RTB4		LFA1		LWRR		RTH2		RTB3		RToe		RElbow		RMT1		STRN		RWRU		RFHD		RTH4		RLFC		RCAL		RMT5		RTH1		RTB2		LTH3		LTH4		RMMAL		LTH1		LElbow		LTH2		LTB3		RLMAL		LTB2		RASI		LCAL		LMT1		LASI		LLMAL		LMT5		LToe		LTB1		LMMAL		LTB4
			X1	Y1	Z1	X2	Y2	Z2	X3	Y3	Z3	X4	Y4	Z4	X5	Y5	Z5	X6	Y6	Z6	X7	Y7	Z7	X8	Y8	Z8	X9	Y9	Z9	X10	Y10	Z10	X11	Y11	Z11	X12	Y12	Z12	X13	Y13	Z13	X14	Y14	Z14	X15	Y15	Z15	X16	Y16	Z16	X17	Y17	Z17	X18	Y18	Z18	X19	Y19	Z19	X20	Y20	Z20	X21	Y21	Z21	X22	Y22	Z22	X23	Y23	Z23	X24	Y24	Z24	X25	Y25	Z25	X26	Y26	Z26	X27	Y27	Z27	X28	Y28	Z28	X29	Y29	Z29	X30	Y30	Z30	X31	Y31	Z31	X32	Y32	Z32	X33	Y33	Z33	X34	Y34	Z34	X35	Y35	Z35	X36	Y36	Z36	X37	Y37	Z37	X38	Y38	Z38	X39	Y39	Z39	X40	Y40	Z40	X41	Y41	Z41	X42	Y42	Z42	X43	Y43	Z43	X44	Y44	Z44	X45	Y45	Z45	X46	Y46	Z46	X47	Y47	Z47	X48	Y48	Z48	X49	Y49	Z49	X50	Y50	Z50	X51	Y51	Z51	X52	Y52	Z52	X53	Y53	Z53	X54	Y54	Z54	X55	Y55	Z55	X56	Y56	Z56	X57	Y57	Z57	X58	Y58	Z58	X59	Y59	Z59

461	2.305	984.57	1493.6	-59.894	812.57	1498.8	-86.878	781.18	1361.2	-19.266	755.22	1091.3	-22.843	755.7	1260.7	109.65	732.22	904.26	-58.645	724.3	905.69	41.016	789.93	968.01	177.33	900.7	749.49	309.67	862.67	1126.2	-267.05	797.42	974.16	-222.95	857.41	450.19	-130.42	973.86	742.94	-312.33	855.16	1147.4	218.08	829.66	880.93	273.61	929.29	786.49	264.11	906.54	1282.7	-12.807	861.4	1297.6	-181.24	947.02	563.25	173.11	988.71	341.41	91.485	920.31	776.03	-330.46	807.99	1503.8	36.633	852.91	1301	135.99	940.86	263.47	89.014	868.61	890.64	-313.99	953.67	779.76	-267.44	988.88	681.76	166.36	906.67	176.54	84.279	970.59	41.71	119.85	827.77	1007.1	257.88	929.58	72.761	90.679	970.55	1179.4	-13.896	857.04	770.23	269.29	987.26	1500.8	17.715	918.98	653.6	189.58	990.22	473.94	166.66	774.43	107.37	76.729	893.65	64.661	133.38	894.21	738.52	208.03	906	276.57	151.53	893.02	558.7	-138.53	899.65	650.78	-162.35	855.68	117.47	43.18	900.81	740.86	-190.22	827.97	1010.4	-287.55	956.53	663.54	-117.77	851.77	156.87	-31.766	831.63	116.38	119.45	836.4	245.93	-108.94	944.09	884.56	139.82	750	29.778	-35.808	904.82	44.453	-17.513	953.5	854.58	-161.8	799.15	61.342	-74.297	884.21	28.308	-74.491	962.77	20.025	-22.002	877.56	337.24	-46.861	813.07	66.996	5.1513	856.56	248.18	-41.262
462	2.31	990.3	1493	-59.645	818.3	1498.5	-86.681	786.63	1360.8	-19.183	760.37	1091	-22.821	760.92	1260.3	109.63	737.08	903.89	-58.277	729.34	905.28	41.38	794.48	967.73	177.11	903.89	748.98	310.4	868.59	1125.9	-267.05	803.87	973.51	-223.17	860.07	449.91	-130.37	981.95	743.45	-312.02	859.89	1146.9	218.12	833.39	880.56	273.69	932.89	785.89	264.99	911.85	1282.2	-12.659	866.89	1297.3	-181.11	954.69	563.44	172.35	999.38	341.68	90.799	928.25	776.18	-330.3	813.68	1503.4	36.822	858.12	1300.5	136.09	953.6	262.49	88.689	875.74	890.43	-314.07	961.41	780.17	-267.21	995.51	682.26	165.63	921.65	174.68	84.316	989.27	41.72	119.89	831.87	1006.7	257.87	947.32	71.57	90.784	975.77	1178.8	-13.763	860.57	769.86	269.63	992.96	1500.2	17.99	926.05	653.55	189.13	998.24	474.36	165.43	791.25	101.97	77.33	911.78	62.612	133.69	900.67	738.16	207.88	918.45	274.92	151.19	896.42	558.23	-138.37	903.74	650.24	-162.23	872.09	114.17	43.429	905.59	740.31	-190.17	834.24	1010	-287.74	960.44	662.68	-117.35	852.47	156.6	-31.694	848.35	112.59	119.88	837.75	245.73	-108.92	949.37	884.02	139.7	749.98	29.897	-35.731	904.86	44.389	-17.426	959.19	854.67	-162.21	799.33	61.379	-74.223	884.22	28.293	-74.452	962.81	20.026	-22.077	879.48	336.8	-46.82	813.17	66.97	5.2892	857.8	247.84	-41.147
463	2.315	996.02	1492.3	-59.39	824.02	1498.1	-86.478	792.07	1360.5	-19.089	765.46	1090.6	-22.783	766.14	1260	109.63	741.95	903.5	-57.87	734.4	904.86	41.776	799.03	967.43	176.95	907.13	748.45	311.1	874.52	1125.5	-267.04	810.32	972.83	-223.38	862.74	449.61	-130.32	990.01	743.91	-311.68	864.63	1146.4	218.18	837.15	880.16	273.78	936.53	785.27	265.85	917.15	1281.7	-12.505	872.36	1296.9	-180.97	962.24	563.58	171.59	1009.9	341.95	90.108	936.17	776.29	-330.11	819.36	1503	37.017	863.34	1300	136.18	966.3	261.55	88.351	882.87	890.19	-314.12	969.14	780.57	-266.96	1002.1	682.67	164.94	936.63	172.9	84.328	1007.9	41.846	119.9	835.99	1006.3	257.88	965.06	70.494	90.85	981.01	1178.2	-13.637	864.13	769.46	269.98	998.64	1499.5	18.271	933.04	653.44	188.69	1006.1	474.7	164.21	808.18	96.689	77.884	929.92	60.702	133.95	907.05	737.75	207.75	930.85	273.28	150.84	899.81	557.75	-138.2	907.8	649.67	-162.12	888.57	111	43.645	910.31	739.73	-190.13	840.51	1009.6	-287.9	964.36	661.79	-116.98	853.19	156.34	-31.6	865.14	108.94	120.26	839.14	245.53	-108.88	954.65	883.43	139.61	749.97	30.018	-35.65	904.89	44.328	-17.33	964.29	854.73	-162.58	799.51	61.42	-74.141	884.23	28.284	-74.416	962.86	20.024	-22.159	881.41	336.33	-46.749	813.28	66.945	5.4315	859.05	247.5	-41.013
464	2.32	1001.7	1491.7	-59.129	829.72	1497.7	-86.268	797.51	1360.1	-18.984	770.51	1090.2	-22.728	771.36	1259.6	109.64	746.82	903.09	-57.428	739.47	904.42	42.206	803.55	967.09	176.83	910.42	747.9	311.78	880.47	1125.1	-267.01	816.76	972.12	-223.57	865.42	449.29	-130.26	998.05	744.34	-311.31	869.37	1145.9	218.26	840.94	879.74	273.89	940.2	784.64	266.69	922.46	1281.1	-12.346	877.81	1296.5	-180.83	969.66	563.64	170.83	1020.3	342.22	89.41	944.07	776.36	-329.88	825.03	1502.5	37.217	868.56	1299.4	136.29	978.95	260.66	87.997	890	889.91	-314.15	976.88	780.95	-266.67	1008.6	682.99	164.28	951.6	171.23	84.309	1026.5	42.101	119.85	840.14	1005.9	257.9	982.8	69.544	90.876	986.25	1177.6	-13.516	867.75	769.02	270.34	1004.3	1498.9	18.56	939.96	653.28	188.26	1013.8	474.96	163.01	825.21	91.56	78.389	948.04	58.944	134.18	913.37	737.28	207.63	943.22	271.67	150.48	903.18	557.24	-138.04	911.83	649.08	-162.02	905.1	107.96	43.828	914.99	739.12	-190.08	846.79	1009.1	-288.05	968.28	660.88	-116.66	853.91	156.07	-31.483	881.98	105.42	120.6	840.55	245.32	-108.82	959.95	882.79	139.56	749.96	30.142	-35.566	904.91	44.272	-17.227	968.82	854.77	-162.9	799.69	61.466	-74.052	884.24	28.279	-74.383	962.9	20.022	-22.249	883.35	335.86	-46.65	813.39	66.921	5.5764	860.31	247.15	-40.86
